<svg version="1.1" id="Layer_1" xmlns="http://www.w3.org/2000/svg" xmlns:xlink="http://www.w3.org/1999/xlink" x="0px" y="0px"
	 width="100%" viewBox="0 0 717 654" enable-background="new 0 0 717 654" xml:space="preserve">
<path fill="#FFFFFF" opacity="1.000000" stroke="none" 
	d="
M485.000000,655.000000 
	C323.333344,655.000000 162.166672,655.000000 1.000000,655.000000 
	C1.000000,437.000000 1.000000,219.000000 1.000000,1.000000 
	C240.000000,1.000000 479.000000,1.000000 718.000000,1.000000 
	C718.000000,219.000000 718.000000,437.000000 718.000000,655.000000 
	C640.500000,655.000000 563.000000,655.000000 485.000000,655.000000 
M280.647888,519.911133 
	C339.458496,546.282166 396.928314,544.046509 453.682678,511.793762 
	C454.301300,511.249084 454.892334,510.668762 455.542694,510.165070 
	C465.041016,502.808167 474.547272,495.461456 484.672516,487.847504 
	C490.805420,481.036194 497.539490,474.663269 502.911469,467.297028 
	C508.954834,459.010071 513.769653,449.827179 519.748779,440.712952 
	C524.443115,429.144073 529.137512,417.575226 533.996887,405.243866 
	C536.260010,397.993591 538.891907,390.833618 540.695007,383.470673 
	C543.079712,373.733063 544.815552,363.836517 547.204590,353.291779 
	C548.137024,348.875885 549.249878,344.489044 549.967651,340.038544 
	C552.009827,327.375305 553.890991,314.686066 555.981445,301.150818 
	C556.496277,297.428101 557.032654,293.708252 557.521790,289.982147 
	C558.693359,281.056946 559.916077,272.137390 560.966309,263.197754 
	C561.406616,259.449524 559.888123,256.802979 556.454346,254.683075 
	C542.748169,246.221222 527.636353,241.900162 511.593384,238.211548 
	C510.437164,238.120743 509.272522,238.090027 508.125946,237.930130 
	C491.640381,235.631104 475.181427,233.114792 458.660065,231.112930 
	C453.020966,230.429657 449.843506,228.209061 447.870850,222.742065 
	C445.020416,214.842300 441.222351,207.284470 437.836395,198.786789 
	C435.903320,194.113647 433.928589,189.457230 432.044617,184.764374 
	C424.593048,166.203094 415.583679,148.629105 400.439819,134.960434 
	C390.843781,126.299171 379.653687,120.536934 366.836823,119.129242 
	C343.197540,116.532913 324.253448,126.233490 309.674408,144.086365 
	C295.140198,161.884338 286.801056,183.110672 278.637207,204.981201 
	C275.412476,212.604324 272.265656,220.262512 268.870911,227.809128 
	C268.412262,228.828674 266.773315,229.769089 265.570374,229.932541 
	C252.458908,231.714005 239.265533,232.968842 226.216766,235.111679 
	C215.713394,236.836533 205.377625,239.581879 194.161438,241.985306 
	C183.141830,244.472168 172.847229,248.662354 163.019638,254.292053 
	C157.971451,257.183899 157.512207,261.323792 158.118805,266.046448 
	C159.634735,277.848602 161.298431,289.632812 163.021484,301.406891 
	C163.836227,306.974213 164.922867,312.501709 165.988281,318.923096 
	C168.715393,334.285553 171.442505,349.648041 174.060913,365.810181 
	C174.371567,366.723022 174.715042,367.626129 174.988037,368.550110 
	C179.960785,385.380310 184.925095,402.213013 190.009491,419.799469 
	C195.636276,431.213654 201.263062,442.627808 207.185760,454.680084 
	C213.916214,463.414337 220.154449,472.593994 227.529877,480.744598 
	C233.641190,487.498291 241.093338,493.038666 248.232758,499.741730 
	C258.858643,506.278992 269.484528,512.816284 280.647888,519.911133 
z"/>
<path fill="#61BB47" opacity="1.000000" stroke="none" 
	d="
M165.886322,318.047272 
	C164.922867,312.501709 163.836227,306.974213 163.021484,301.406891 
	C161.298431,289.632812 159.634735,277.848602 158.118805,266.046448 
	C157.512207,261.323792 157.971451,257.183899 163.019638,254.292053 
	C172.847229,248.662354 183.141830,244.472168 194.607239,242.303650 
	C196.768631,245.590408 197.878098,249.259033 200.327698,251.379501 
	C205.226151,255.619797 210.868866,258.997681 216.186066,262.757385 
	C227.955109,271.079010 241.013855,276.858765 254.709747,280.881287 
	C264.318726,283.703430 274.315460,285.355225 284.233521,286.937500 
	C296.781586,288.939331 309.405945,290.514801 322.036011,291.929688 
	C328.852020,292.693298 335.752350,292.679535 342.607788,293.122650 
	C351.424408,293.692535 360.227417,294.670502 369.049835,294.868469 
	C373.264099,294.963074 377.492523,293.511292 381.745392,293.036224 
	C386.915924,292.458649 392.177368,292.524689 397.294098,291.676514 
	C404.759827,290.438934 412.173950,288.809967 419.533630,287.031616 
	C430.734436,284.325165 441.930389,281.562714 453.018494,278.434448 
	C469.018250,273.920532 483.185730,265.560852 496.252014,255.615112 
	C502.271729,251.033081 506.817932,244.515152 512.032288,238.875031 
	C527.636353,241.900162 542.748169,246.221222 556.454346,254.683075 
	C559.888123,256.802979 561.406616,259.449524 560.966309,263.197754 
	C559.916077,272.137390 558.693359,281.056946 557.521790,289.982147 
	C557.032654,293.708252 556.496277,297.428101 555.479492,301.576569 
	C553.978271,302.015137 552.963379,301.918091 551.982117,302.057922 
	C543.003845,303.337280 534.013000,304.544464 525.062500,305.998138 
	C516.116333,307.451172 507.210114,309.151001 498.290314,310.764191 
	C488.717194,312.495544 479.171875,314.394379 469.572205,315.961548 
	C457.371063,317.953400 445.137115,319.752838 432.898315,321.502411 
	C426.198853,322.460114 419.477936,323.519867 412.733917,323.837006 
	C406.965393,324.108276 400.961273,322.318268 395.390869,323.303314 
	C378.398193,326.308228 361.302673,325.641968 344.228668,325.966125 
	C334.655365,326.147888 325.070435,326.200836 315.500366,325.947693 
	C304.235260,325.649689 292.983246,324.886963 281.720459,324.459656 
	C273.565002,324.150299 265.377014,324.391052 257.246643,323.796722 
	C243.238251,322.772736 229.263855,321.284882 215.274384,320.000671 
	C204.742691,319.033936 194.224930,317.795959 183.671402,317.234131 
	C177.774185,316.920166 171.816666,317.738922 165.886322,318.047272 
z"/>
<path fill="#71BF44" opacity="1.000000" stroke="none" 
	d="
M511.812836,238.543274 
	C506.817932,244.515152 502.271729,251.033081 496.252014,255.615112 
	C483.185730,265.560852 469.018250,273.920532 453.018494,278.434448 
	C441.930389,281.562714 430.734436,284.325165 419.533630,287.031616 
	C412.173950,288.809967 404.759827,290.438934 397.294098,291.676514 
	C392.177368,292.524689 386.915924,292.458649 381.745392,293.036224 
	C377.492523,293.511292 373.264099,294.963074 369.049835,294.868469 
	C360.227417,294.670502 351.424408,293.692535 342.607788,293.122650 
	C335.752350,292.679535 328.852020,292.693298 322.036011,291.929688 
	C309.405945,290.514801 296.781586,288.939331 284.233521,286.937500 
	C274.315460,285.355225 264.318726,283.703430 254.709747,280.881287 
	C241.013855,276.858765 227.955109,271.079010 216.186066,262.757385 
	C210.868866,258.997681 205.226151,255.619797 200.327698,251.379501 
	C197.878098,249.259033 196.768631,245.590408 195.010254,242.248230 
	C205.377625,239.581879 215.713394,236.836533 226.216766,235.111679 
	C239.265533,232.968842 252.458908,231.714005 265.570374,229.932541 
	C266.773315,229.769089 268.412262,228.828674 268.870911,227.809128 
	C272.265656,220.262512 275.412476,212.604324 279.319763,204.900421 
	C282.224609,205.924759 284.375732,207.214828 286.681824,208.102158 
	C295.467651,211.482712 304.303497,214.733368 313.052307,218.404312 
	C311.964539,221.298065 310.945068,223.820084 309.760437,226.750732 
	C343.105225,226.750732 375.898499,226.750732 409.264862,226.750732 
	C407.117676,221.560410 405.144257,216.790192 403.538696,211.964035 
	C410.578308,209.495300 417.252441,207.088989 423.921112,204.667480 
	C428.560852,202.982712 433.192993,201.277084 437.828552,199.580750 
	C441.222351,207.284470 445.020416,214.842300 447.870850,222.742065 
	C449.843506,228.209061 453.020966,230.429657 458.660065,231.112930 
	C475.181427,233.114792 491.640381,235.631104 508.125946,237.930130 
	C509.272522,238.090027 510.437164,238.120743 511.812836,238.543274 
z"/>
<path fill="#41B24A" opacity="1.000000" stroke="none" 
	d="
M189.891205,419.045166 
	C184.925095,402.213013 179.960785,385.380310 174.988037,368.550110 
	C174.715042,367.626129 174.371567,366.723022 174.522156,365.406158 
	C183.798721,363.674072 192.576172,361.934204 201.438675,361.119324 
	C213.231979,360.034943 225.092972,359.695068 236.921463,358.978790 
	C239.548813,358.819672 242.165680,358.150116 244.780838,358.186401 
	C255.320480,358.332672 265.882690,359.228699 276.388245,358.761444 
	C286.211395,358.324585 295.760315,355.843872 305.898285,356.700470 
	C317.318481,357.665405 328.933838,356.330780 340.463409,355.968201 
	C341.281036,355.942474 342.086792,355.588928 342.905823,355.549652 
	C353.670319,355.033661 364.433960,354.482483 375.203644,354.107819 
	C377.313721,354.034424 379.460449,355.004883 381.570038,354.929108 
	C397.225189,354.366852 412.881134,353.773438 428.523773,352.943573 
	C434.284241,352.638000 439.998596,351.270325 445.753876,351.112457 
	C451.696747,350.949524 457.661774,351.903564 463.620728,351.955933 
	C479.110107,352.092163 494.606995,351.747009 510.090271,352.082886 
	C522.345093,352.348755 534.584167,353.339447 546.830261,354.008301 
	C544.815552,363.836517 543.079712,373.733063 540.695007,383.470673 
	C538.891907,390.833618 536.260010,397.993591 533.511536,405.612122 
	C525.777100,404.338287 518.564941,402.504364 511.270233,401.098938 
	C500.260437,398.977753 489.207520,397.067963 478.144775,395.238556 
	C471.309540,394.108215 464.442596,393.092651 457.552765,392.389404 
	C449.392365,391.556488 441.200897,390.908569 433.006714,390.556519 
	C422.955292,390.124664 412.887939,390.014832 402.825958,389.891754 
	C394.259308,389.786957 385.689758,389.924530 377.122833,389.831604 
	C371.922760,389.775177 366.701263,389.079529 361.531494,389.384552 
	C351.143372,389.997406 340.782654,391.082062 330.413361,392.003113 
	C319.940460,392.933380 309.397797,393.410217 299.015350,394.956299 
	C278.291382,398.042236 257.496429,400.983459 237.035477,405.397064 
	C221.081726,408.838501 205.588867,414.416595 189.891205,419.045166 
z"/>
<path fill="#51B748" opacity="1.000000" stroke="none" 
	d="
M547.017456,353.650024 
	C534.584167,353.339447 522.345093,352.348755 510.090271,352.082886 
	C494.606995,351.747009 479.110107,352.092163 463.620728,351.955933 
	C457.661774,351.903564 451.696747,350.949524 445.753876,351.112457 
	C439.998596,351.270325 434.284241,352.638000 428.523773,352.943573 
	C412.881134,353.773438 397.225189,354.366852 381.570038,354.929108 
	C379.460449,355.004883 377.313721,354.034424 375.203644,354.107819 
	C364.433960,354.482483 353.670319,355.033661 342.905823,355.549652 
	C342.086792,355.588928 341.281036,355.942474 340.463409,355.968201 
	C328.933838,356.330780 317.318481,357.665405 305.898285,356.700470 
	C295.760315,355.843872 286.211395,358.324585 276.388245,358.761444 
	C265.882690,359.228699 255.320480,358.332672 244.780838,358.186401 
	C242.165680,358.150116 239.548813,358.819672 236.921463,358.978790 
	C225.092972,359.695068 213.231979,360.034943 201.438675,361.119324 
	C192.576172,361.934204 183.798721,363.674072 174.576508,365.006317 
	C171.442505,349.648041 168.715393,334.285553 165.937302,318.485168 
	C171.816666,317.738922 177.774185,316.920166 183.671402,317.234131 
	C194.224930,317.795959 204.742691,319.033936 215.274384,320.000671 
	C229.263855,321.284882 243.238251,322.772736 257.246643,323.796722 
	C265.377014,324.391052 273.565002,324.150299 281.720459,324.459656 
	C292.983246,324.886963 304.235260,325.649689 315.500366,325.947693 
	C325.070435,326.200836 334.655365,326.147888 344.228668,325.966125 
	C361.302673,325.641968 378.398193,326.308228 395.390869,323.303314 
	C400.961273,322.318268 406.965393,324.108276 412.733917,323.837006 
	C419.477936,323.519867 426.198853,322.460114 432.898315,321.502411 
	C445.137115,319.752838 457.371063,317.953400 469.572205,315.961548 
	C479.171875,314.394379 488.717194,312.495544 498.290314,310.764191 
	C507.210114,309.151001 516.116333,307.451172 525.062500,305.998138 
	C534.013000,304.544464 543.003845,303.337280 551.982117,302.057922 
	C552.963379,301.918091 553.978271,302.015137 555.406616,302.004700 
	C553.890991,314.686066 552.009827,327.375305 549.967651,340.038544 
	C549.249878,344.489044 548.137024,348.875885 547.017456,353.650024 
z"/>
<path fill="#22A84D" opacity="1.000000" stroke="none" 
	d="
M519.118896,441.034027 
	C513.769653,449.827179 508.954834,459.010071 502.911469,467.297028 
	C497.539490,474.663269 490.805420,481.036194 484.215942,487.666412 
	C474.955109,482.333801 466.492706,476.429901 457.254791,472.232880 
	C447.113800,467.625610 436.321960,464.394684 425.689789,460.946106 
	C419.436646,458.917877 413.024414,456.995972 406.537689,456.161926 
	C396.773346,454.906433 386.881195,454.108521 377.043182,454.106750 
	C366.297302,454.104828 355.517609,454.905090 344.819702,456.006683 
	C339.661255,456.537811 334.646515,458.525635 329.584686,459.919189 
	C321.653870,462.102631 313.674042,464.140198 305.842682,466.639618 
	C301.795807,467.931152 297.949524,469.937897 294.141815,471.875519 
	C283.129364,477.479401 272.036438,482.952728 261.276215,489.012024 
	C256.463928,491.721924 252.370911,495.709045 247.951462,499.116547 
	C241.093338,493.038666 233.641190,487.498291 227.529877,480.744598 
	C220.154449,472.593994 213.916214,463.414337 207.355606,454.213989 
	C217.074707,449.203461 226.281143,443.611877 236.249756,440.348450 
	C253.190918,434.802399 270.583832,430.615601 287.840576,426.061005 
	C301.210602,422.532288 314.517181,419.165527 328.428253,417.562897 
	C345.156616,415.635712 361.836517,414.266632 378.633850,414.059662 
	C383.250153,414.002808 387.871155,414.741272 392.497223,414.965973 
	C400.858704,415.372192 409.242218,415.445740 417.585205,416.074127 
	C424.821442,416.619141 432.102386,417.297333 439.205353,418.711334 
	C449.347168,420.730255 459.344269,423.475800 469.403870,425.908081 
	C476.451019,427.611969 483.611328,428.950928 490.520050,431.099396 
	C500.151367,434.094543 509.594971,437.693481 519.118896,441.034027 
z"/>
<path fill="#34AE4B" opacity="1.000000" stroke="none" 
	d="
M519.433838,440.873474 
	C509.594971,437.693481 500.151367,434.094543 490.520050,431.099396 
	C483.611328,428.950928 476.451019,427.611969 469.403870,425.908081 
	C459.344269,423.475800 449.347168,420.730255 439.205353,418.711334 
	C432.102386,417.297333 424.821442,416.619141 417.585205,416.074127 
	C409.242218,415.445740 400.858704,415.372192 392.497223,414.965973 
	C387.871155,414.741272 383.250153,414.002808 378.633850,414.059662 
	C361.836517,414.266632 345.156616,415.635712 328.428253,417.562897 
	C314.517181,419.165527 301.210602,422.532288 287.840576,426.061005 
	C270.583832,430.615601 253.190918,434.802399 236.249756,440.348450 
	C226.281143,443.611877 217.074707,449.203461 207.207642,453.894958 
	C201.263062,442.627808 195.636276,431.213654 189.950348,419.422302 
	C205.588867,414.416595 221.081726,408.838501 237.035477,405.397064 
	C257.496429,400.983459 278.291382,398.042236 299.015350,394.956299 
	C309.397797,393.410217 319.940460,392.933380 330.413361,392.003113 
	C340.782654,391.082062 351.143372,389.997406 361.531494,389.384552 
	C366.701263,389.079529 371.922760,389.775177 377.122833,389.831604 
	C385.689758,389.924530 394.259308,389.786957 402.825958,389.891754 
	C412.887939,390.014832 422.955292,390.124664 433.006714,390.556519 
	C441.200897,390.908569 449.392365,391.556488 457.552765,392.389404 
	C464.442596,393.092651 471.309540,394.108215 478.144775,395.238556 
	C489.207520,397.067963 500.260437,398.977753 511.270233,401.098938 
	C518.564941,402.504364 525.777100,404.338287 533.429016,405.993347 
	C529.137512,417.575226 524.443115,429.144073 519.433838,440.873474 
z"/>
<path fill="#92C83E" opacity="1.000000" stroke="none" 
	d="
M313.120636,218.032562 
	C304.303497,214.733368 295.467651,211.482712 286.681824,208.102158 
	C284.375732,207.214828 282.224609,205.924759 279.589355,204.686890 
	C286.801056,183.110672 295.140198,161.884338 309.674408,144.086365 
	C324.253448,126.233490 343.197540,116.532913 366.836823,119.129242 
	C379.653687,120.536934 390.843781,126.299171 400.439819,134.960434 
	C415.583679,148.629105 424.593048,166.203094 432.044617,184.764374 
	C433.928589,189.457230 435.903320,194.113647 437.832458,199.183777 
	C433.192993,201.277084 428.560852,202.982712 423.921112,204.667480 
	C417.252441,207.088989 410.578308,209.495300 403.454895,211.593750 
	C400.310577,204.813324 397.846893,198.239853 394.874847,191.904831 
	C389.591003,180.641937 383.842407,169.683426 374.018188,161.439987 
	C366.168427,154.853271 356.414673,154.008804 347.770264,159.632004 
	C338.524475,165.646393 332.741943,174.585419 328.085571,184.147110 
	C322.683228,195.240631 318.074097,206.720444 313.120636,218.032562 
z"/>
<path fill="#0B9F4E" opacity="1.000000" stroke="none" 
	d="
M452.993103,511.833435 
	C396.928314,544.046509 339.458496,546.282166 280.753967,519.498901 
	C292.687561,508.108643 305.469269,498.731018 320.191437,491.666656 
	C337.232330,483.489746 355.528290,481.358429 373.644867,478.015320 
	C374.125244,477.926666 374.659058,477.945190 375.136963,478.052185 
	C387.032959,480.715851 399.035217,482.991211 410.789062,486.181396 
	C425.097168,490.064880 436.833618,499.112610 449.153931,506.872253 
	C450.815918,507.919037 451.731750,510.150543 452.993103,511.833435 
z"/>
<path fill="#16A34E" opacity="1.000000" stroke="none" 
	d="
M453.337891,511.813599 
	C451.731750,510.150543 450.815918,507.919037 449.153931,506.872253 
	C436.833618,499.112610 425.097168,490.064880 410.789062,486.181396 
	C399.035217,482.991211 387.032959,480.715851 375.136963,478.052185 
	C374.659058,477.945190 374.125244,477.926666 373.644867,478.015320 
	C355.528290,481.358429 337.232330,483.489746 320.191437,491.666656 
	C305.469269,498.731018 292.687561,508.108643 280.485229,519.220093 
	C269.484528,512.816284 258.858643,506.278992 248.092102,499.429138 
	C252.370911,495.709045 256.463928,491.721924 261.276215,489.012024 
	C272.036438,482.952728 283.129364,477.479401 294.141815,471.875519 
	C297.949524,469.937897 301.795807,467.931152 305.842682,466.639618 
	C313.674042,464.140198 321.653870,462.102631 329.584686,459.919189 
	C334.646515,458.525635 339.661255,456.537811 344.819702,456.006683 
	C355.517609,454.905090 366.297302,454.104828 377.043182,454.106750 
	C386.881195,454.108521 396.773346,454.906433 406.537689,456.161926 
	C413.024414,456.995972 419.436646,458.917877 425.689789,460.946106 
	C436.321960,464.394684 447.113800,467.625610 457.254791,472.232880 
	C466.492706,476.429901 474.955109,482.333801 483.905487,487.798828 
	C474.547272,495.461456 465.041016,502.808167 455.542694,510.165070 
	C454.892334,510.668762 454.301300,511.249084 453.337891,511.813599 
z"/>
<path fill="#FFFFFF" opacity="1.000000" stroke="none" 
	d="
M313.052307,218.404312 
	C318.074097,206.720444 322.683228,195.240631 328.085571,184.147110 
	C332.741943,174.585419 338.524475,165.646393 347.770264,159.632004 
	C356.414673,154.008804 366.168427,154.853271 374.018188,161.439987 
	C383.842407,169.683426 389.591003,180.641937 394.874847,191.904831 
	C397.846893,198.239853 400.310577,204.813324 403.087067,211.649689 
	C405.144257,216.790192 407.117676,221.560410 409.264862,226.750732 
	C375.898499,226.750732 343.105225,226.750732 309.760437,226.750732 
	C310.945068,223.820084 311.964539,221.298065 313.052307,218.404312 
z"/>
</svg>